<?xml version="1.0" encoding="utf-8"?>
<!-- Generator: Adobe Illustrator 22.1.0, SVG Export Plug-In . SVG Version: 6.00 Build 0)  -->
<svg version="1.1" id="Layer_1" xmlns="http://www.w3.org/2000/svg" xmlns:xlink="http://www.w3.org/1999/xlink" x="0px" y="0px"
	 viewBox="0 0 273.3 280.7" style="enable-background:new 0 0 273.3 280.7;" xml:space="preserve">
<style type="text/css">
	.st0{fill:none;stroke:#000000;stroke-width:18;stroke-linecap:round;stroke-miterlimit:10;}
	.st1{fill:none;stroke:#000000;stroke-width:13;stroke-miterlimit:10;}
	.st2{fill:none;stroke:#000000;stroke-width:13;stroke-linecap:round;stroke-miterlimit:10;}
</style>
<g>
	<path class="st0" d="M10.6,12.3H36c0.9,0,1.7,0.8,1.7,1.7v129.4"/>
	<path class="st0" d="M37.8,31.3l202.9,0c10.3,0,18.9,8.2,19.2,18.5c0.7,31.5-14.9,92.9-33.4,116.3c-4,5-10.1,7.6-16.5,7.6
		c-27.4,0-116.3,0-149.3,0c-12.1,0-21.3,12.3-16.5,23.4c0,0.1,0.1,0.2,0.1,0.3c2.3,5.1,7.9,7.9,13.5,7.9l120.1,0
		c14.3,0,11.3,17.2,11.3,33"/>
	<circle class="st1" cx="54" cy="254.4" r="17.9"/>
	<path class="st2" d="M160.1,242c-3.1,3.3-5.1,7.6-5.1,12.5c0,9.9,8,17.8,17.8,17.8c4.9,0,9.3-2,12.6-5.1"/>
</g>
</svg>
