<?xml version="1.0" encoding="utf-8"?>
<!-- Generator: Adobe Illustrator 22.1.0, SVG Export Plug-In . SVG Version: 6.00 Build 0)  -->
<svg version="1.1"
	 id="svg3013" inkscape:version="0.48.3.1 r9886" sodipodi:docname="home_font_awesome.svg" xmlns:cc="http://creativecommons.org/ns#" xmlns:dc="http://purl.org/dc/elements/1.1/" xmlns:inkscape="http://www.inkscape.org/namespaces/inkscape" xmlns:rdf="http://www.w3.org/1999/02/22-rdf-syntax-ns#" xmlns:sodipodi="http://sodipodi.sourceforge.net/DTD/sodipodi-0.dtd" xmlns:svg="http://www.w3.org/2000/svg"
	 xmlns="http://www.w3.org/2000/svg" xmlns:xlink="http://www.w3.org/1999/xlink" x="0px" y="0px" viewBox="0 0 80 80"
	 style="enable-background:new 0 0 80 80;" xml:space="preserve">
<style type="text/css">
	.st0{fill:#FFFFFF;}
</style>
<sodipodi:namedview  bordercolor="#666666" borderopacity="1" gridtolerance="10" guidetolerance="10" id="namedview3019" inkscape:current-layer="svg3013" inkscape:cx="896" inkscape:cy="896" inkscape:pageopacity="0" inkscape:pageshadow="2" inkscape:window-height="480" inkscape:window-maximized="0" inkscape:window-width="640" inkscape:window-x="0" inkscape:window-y="25" inkscape:zoom="0.13169643" objecttolerance="10" pagecolor="#ffffff" showgrid="false">
	</sodipodi:namedview>
<g id="g3015" transform="matrix(1,0,0,-1,68.338983,1285.4237)">
	<path id="path3017" inkscape:connector-curvature="0" class="st0" d="M-2.4,1240.9v-21.4c0-0.8-0.3-1.4-0.8-2s-1.2-0.8-2-0.8h-17.1
		v17.1h-11.4v-17.1H-51c-0.8,0-1.4,0.3-2,0.8s-0.8,1.2-0.8,2v21.4c0,0,0,0.1,0,0.1s0,0.1,0,0.1l25.7,21.2l25.7-21.2
		C-2.4,1241.1-2.4,1241-2.4,1240.9z M7.5,1244l-2.8-3.3c-0.2-0.3-0.6-0.4-0.9-0.5H3.7c-0.4,0-0.7,0.1-0.9,0.3l-30.9,25.8l-30.9-25.8
		c-0.4-0.2-0.7-0.3-1.1-0.3c-0.4,0.1-0.7,0.2-0.9,0.5l-2.8,3.3c-0.2,0.3-0.3,0.6-0.3,1c0,0.4,0.2,0.7,0.5,1l32.1,26.7
		c1,0.8,2.1,1.2,3.4,1.2s2.4-0.4,3.4-1.2l10.9-9.1v8.7c0,0.4,0.1,0.8,0.4,1c0.3,0.3,0.6,0.4,1,0.4h8.6c0.4,0,0.8-0.1,1-0.4
		s0.4-0.6,0.4-1v-18.2l9.8-8.1c0.3-0.2,0.5-0.6,0.5-1C7.9,1244.6,7.8,1244.3,7.5,1244z"/>
</g>
</svg>
